<?xml version="1.0" encoding="utf-8"?>
<!-- Generator: Adobe Illustrator 15.1.0, SVG Export Plug-In . SVG Version: 6.00 Build 0)  -->
<!DOCTYPE svg PUBLIC "-//W3C//DTD SVG 1.1//EN" "http://www.w3.org/Graphics/SVG/1.1/DTD/svg11.dtd">
<svg version="1.1" id="Layer_1" xmlns="http://www.w3.org/2000/svg" xmlns:xlink="http://www.w3.org/1999/xlink" x="0px" y="0px"
	 width="27px" height="23px" viewBox="0 0 27 23" enable-background="new 0 0 27 23" xml:space="preserve">
<g>
	<path fill-rule="evenodd" clip-rule="evenodd" fill="#003976" d="M1.124,8.696h1.013v5.425c0,0.843-0.616,1.409-1.47,1.409H0.27
		v-0.954h0.288c0.348,0,0.566-0.158,0.566-0.535V8.696L1.124,8.696L1.124,8.696z M1.124,6.661h1.013v1.013H1.124V6.661L1.124,6.661z
		"/>
	<path fill-rule="evenodd" clip-rule="evenodd" fill="#003976" d="M3.802,10.761c0.02-0.765,0.467-1.171,1.062-1.171
		s1.032,0.407,1.062,1.171H3.802L3.802,10.761L3.802,10.761z M6.938,11.594v-0.833c0-1.3-0.963-2.125-2.074-2.125
		c-0.973,0-2.075,0.635-2.075,2.591c0,2.065,1.201,2.561,2.233,2.561c0.675,0,1.32-0.239,1.816-0.814l-0.734-0.625
		c-0.298,0.308-0.715,0.486-1.102,0.486c-0.695,0-1.201-0.416-1.201-1.241H6.938L6.938,11.594z"/>
	<path fill-rule="evenodd" clip-rule="evenodd" fill="#003976" d="M7.741,7.167h1.012v1.529h0.734V9.47H8.753v2.927
		c0,0.279,0.109,0.378,0.356,0.378h0.377v0.953H8.961c-0.705,0-1.22-0.447-1.22-1.241V9.47H7.234V8.696h0.507V7.167L7.741,7.167z"/>
	<path fill-rule="evenodd" clip-rule="evenodd" fill="#003976" d="M12.853,10.592c0.794,0,1.15,0.506,1.15,1.062
		c0,0.557-0.356,1.062-1.15,1.062h-1.648v-2.124H12.853L12.853,10.592L12.853,10.592z M10.132,13.729h2.978
		c1.062,0,1.965-0.784,1.965-2.006c0-0.714-0.377-1.448-1.15-1.628v-0.02c0.824-0.367,1.042-0.933,1.042-1.518
		c0-1.112-0.715-1.896-2.095-1.896h-2.74V13.729L10.132,13.729L10.132,13.729z M12.753,7.614c0.774,0,1.142,0.466,1.142,1.012
		c0,0.556-0.367,1.013-1.142,1.013h-1.548V7.614H12.753L12.753,7.614z"/>
	<path fill-rule="evenodd" clip-rule="evenodd" fill="#003976" d="M15.657,6.661h1.013v5.767c0,0.229,0.129,0.348,0.378,0.348h0.347
		v0.953h-0.446c-0.735,0-1.291-0.317-1.291-1.221V6.661L15.657,6.661z"/>
	<path fill-rule="evenodd" clip-rule="evenodd" fill="#003976" d="M17.822,8.696h1.012v2.997c0,0.686,0.428,1.082,1.004,1.082
		c0.565,0,0.991-0.396,0.991-1.082V8.696h1.013v5.032h-1.013v-0.537h-0.019c-0.318,0.397-0.775,0.597-1.302,0.597
		c-0.793,0-1.687-0.605-1.687-1.747V8.696L17.822,8.696z"/>
	<path fill-rule="evenodd" clip-rule="evenodd" fill="#003976" d="M23.398,10.761c0.021-0.765,0.467-1.171,1.062-1.171
		s1.032,0.407,1.062,1.171H23.398L23.398,10.761L23.398,10.761z M26.535,11.594v-0.833c0-1.3-0.963-2.125-2.074-2.125
		c-0.973,0-2.075,0.635-2.075,2.591c0,2.065,1.201,2.561,2.233,2.561c0.676,0,1.32-0.239,1.817-0.814l-0.735-0.625
		c-0.298,0.308-0.714,0.486-1.102,0.486c-0.694,0-1.201-0.416-1.201-1.241H26.535L26.535,11.594z"/>
</g>
</svg>
