<svg xmlns="http://www.w3.org/2000/svg" width="27" height="23"><path fill="#005DAA" d="M24.463.481v21.918h-4.541c.961-2.52 1.176-5.634.498-8.365-.82-3.468-3.09-6.766-6.311-8.8C11.07 3.297 7.207 2.537 3.411 3.318l-.874.214V.481h21.926zM8.573 3.917c-1.166-.644-2.701-.737-4.075-.503l.484.056.07-.033c.637-.048 1.307-.025 1.902.105-.196.054-.53.163-.764.261.133.048.301.135.417.208.253-.09.782-.232 1.042-.284.229.069.822.343 1.19.611-.435.047-1.03.132-1.508.244.113.098.209.215.293.343.465-.085 1.143-.163 1.73-.184.298.256.54.565.706.886-.645-.044-1.504-.034-2.029.023.053.095.129.335.16.479.651-.028 1.716.02 2.162.084.146.352.23.731.264 1.127-.746-.146-1.623-.27-2.307-.303.007.22-.001.431-.021.639.813.083 1.604.23 2.37.428-.011.389-.068.873-.171 1.246-.607-.216-1.575-.503-2.397-.668-.083.336-.19.667-.336.986.804.268 1.597.617 2.356.993-.125.361-.306.764-.475 1.062-.76-.426-1.542-.844-2.316-1.174-.235.428-.532.886-.814 1.26.755.46 1.469.958 2.179 1.492-.213.31-.518.684-.702.907-.679-.564-2.074-1.675-2.074-1.675-.412.495-.764.863-1.28 1.263.574.588 1.322 1.423 1.791 2.004-.241.253-.478.453-.762.649-.569-.699-1.252-1.581-1.651-2.134-.558.438-.9.675-1.469.971v.818l.906 1.815c-.207.131-.373.213-.636.324l-.27-.528v.952c3.496-1.553 7.053-4.975 8.087-8.693.379-1.285.446-2.938-.173-4.136-.365-.786-1.1-1.521-1.879-1.921zm-.522-.54c.151.051.297.118.442.181l.083-.014c.748.122 1.461.371 2.101.72-.347.004-.707-.001-1.055.028.147.13.3.281.426.42.468-.009.923.001 1.372.031.443.325.896.763 1.148 1.212-.52-.119-1.234-.22-1.871-.275.083.189.166.384.237.587.707.104 1.409.233 2.093.406.222.466.396.957.467 1.476-.753-.268-1.523-.522-2.314-.684.02.255.021.519.023.777.817.235 1.613.51 2.384.86.004.524-.05 1.024-.168 1.498-.778-.387-1.57-.77-2.392-1.048-.105.462-.241.91-.404 1.347.792.407 1.576.818 2.325 1.307-.141.401-.349.839-.588 1.229-.734-.501-1.47-.99-2.237-1.415-.261.541-.589 1.096-.983 1.602.684.541 1.384 1.099 2.042 1.694-.217.327-.507.705-.833 1.048-.481-.507-1.283-1.226-1.95-1.79-.472.571-1.032 1.2-1.593 1.67.427.452 1.701 1.986 1.701 1.986-.254.254-.571.515-.897.75 0 0-1.299-1.668-1.621-2.069-.769.61-1.383 1.036-2.284 1.515.358.608 1.243 2.255 1.243 2.255-.228.139-.466.27-.704.356-.417-.694-.92-1.699-1.188-2.271-.259.142-.519.232-.519.232v2.999c2.709-.881 5.208-2.437 7.323-4.688 1.929-2.09 3.452-4.345 3.905-7.038.361-2.148-.351-4.172-2.056-5.539-1.034-.889-2.318-1.198-3.658-1.355zm-.902 1.431c-1.189-1.199-3.009-1.3-4.612-.922.001 0 0 .145 0 .145.334-.071.77-.14 1.167-.139-.259.158-.509.348-.736.535.097.02.2.052.291.091.363-.258.714-.483 1.005-.641.378.003.868.073 1.189.202-.528.189-1.166.483-1.58.759.077.041.158.108.215.17.506-.271 1.235-.583 1.833-.773.282.112.586.314.76.482-.762.181-1.494.381-2.23.68.072.084.148.21.185.289.532-.188 1.574-.493 2.395-.649.148.161.326.415.419.654-.903.094-1.936.252-2.63.449.042.117.068.232.089.341.856-.164 1.799-.287 2.721-.325.083.266.128.549.13.84-.918-.058-1.97-.017-2.808.066 0 .109-.015.326-.029.46.848-.025 1.797-.015 2.81.099-.036.275-.103.631-.19.938-.948-.217-1.812-.321-2.764-.385-.036.185-.114.41-.203.602.892.163 1.782.41 2.643.72-.119.277-.257.548-.407.815-.644-.304-1.786-.73-2.535-.94-.124.25-.332.589-.54.843.541.262 1.573.846 2.279 1.302-.169.227-.357.461-.559.671-.684-.534-1.366-1.038-2.11-1.51-.238.272-.533.567-.811.802v.085l1.709 1.823c-.189.171-.383.329-.585.477l-1.125-1.438v2.538c1.738-1.02 3.496-2.691 4.485-4.466.806-1.42 1.417-3.342.636-4.974-.139-.251-.285-.496-.507-.716zm5.109.018l.507.061c.505.262.968.631 1.387 1.073.152.168.318.338.426.521-.418-.118-.823-.262-1.251-.354.145.229.248.451.355.712.482.139.957.305 1.425.472.299.568.516 1.178.621 1.823-.539-.27-1.076-.532-1.633-.75.041.315.057.641.041.954.609.279 1.295.653 1.715.924.016.446-.029 1.239-.16 1.745-.484-.355-1.186-.811-1.752-1.104-.079.438-.285 1.121-.503 1.601.593.403 1.185.814 1.748 1.298-.174.476-.393.929-.631 1.373-.564-.483-1.134-.946-1.73-1.392-.338.666-.712 1.269-1.221 1.895.573.527 1.117 1.043 1.664 1.609-.269.387-.566.772-.917 1.133-.521-.559-1.055-1.13-1.599-1.663-.565.651-1.205 1.334-1.873 1.897.308.32.972 1.097 1.455 1.791-.333.284-.642.552-.974.795l-1.405-1.81c-.868.675-1.788 1.234-2.713 1.737l.738 1.232h2.286c3.493-2.387 6.65-5.931 7.619-9.882.59-2.42.033-4.897-1.635-6.698-.89-.958-1.877-1.281-2.573-1.496.178.119.383.298.583.503zm-9.72-.201v.423l.236-.165c.196.046.421.145.571.242-.272.16-.553.318-.805.492v.264c.335-.205.731-.446 1.045-.605.126.083.24.201.33.321-.454.181-1.084.488-1.378.644v.273c.502-.244 1.057-.491 1.585-.654.069.12.136.271.163.41-.562.109-1.213.347-1.745.552v.25c.562-.196 1.318-.395 1.814-.475.036.16.042.366.042.513-.746.071-1.249.158-1.854.28v.286c.539-.074 1.437-.139 1.825-.124-.037.195-.079.398-.155.574-.447-.041-1.168-.073-1.672-.06-.003 0-.003.379-.003.381.492.027 1.032.149 1.463.231-.057.151-.168.361-.263.513-.336-.114-.832-.271-1.2-.329v.75c.237.105.579.276.695.352-.077.115-.234.304-.339.399-.156-.105-.356-.223-.356-.223v.958c.395-.389.784-.795 1.091-1.225.765-1.103 1.368-2.534.819-3.913-.333-.756-1.138-1.231-1.909-1.335zm12.806 2.111c.158.27.312.547.439.832l.607.279c.434.707.779 1.449.965 2.256-.334-.213-.678-.433-1.02-.619.053.365.066.696.076 1.082.385.27.787.555 1.16.886.035.676-.012 1.346-.117 1.973-.406-.397-.834-.75-1.254-1.042-.102.578-.312 1.233-.555 1.814.428.342.898.787 1.309 1.237-.178.519-.393 1-.648 1.47-.414-.447-.867-.912-1.32-1.309-.277.542-.84 1.415-1.334 2.086.452.465.87.95 1.284 1.433-.295.414-.629.805-.976 1.186-.418-.484-.811-.981-1.249-1.452-.662.772-1.218 1.372-2.01 2.039.469.566 1.176 1.512 1.176 1.512h.401c.741-.661 1.453-1.401 2.101-2.149 1.6-1.956 2.863-4.046 3.307-6.473.479-2.547-.191-5.024-1.875-6.868l-.467-.173zm1.597 1.274l-.006.018c.73.899 1.311 1.863 1.611 2.936l-.006.012-.564-.427c.072.437.129.841.145 1.294.266.202.557.463.785.738.037.74.037 1.527-.09 2.255-.252-.338-.479-.58-.873-.976-.088.538-.289 1.385-.531 1.95.344.375.697.85.922 1.197-.131.444-.381 1.043-.65 1.544-.318-.411-.541-.743-.959-1.232-.41.76-.895 1.532-1.43 2.243.363.428.695.874 1.012 1.326-.299.419-.619.832-.971 1.224-.33-.452-.682-.904-1.025-1.351-.479.557-.961 1.124-1.545 1.638h2.69c1.734-2.012 2.992-4.237 3.504-6.753.529-2.536.111-5.218-1.523-7.128-.152-.169-.312-.382-.496-.508zm2.297 3.524c.105.486.152.886.211 1.522.201.218.441.587.441.587.023.741-.02 1.487-.174 2.253l-.408-.503c-.123.703-.295 1.356-.555 2.075l.453.786c-.133.471-.391 1.119-.641 1.64-.168-.276-.33-.578-.502-.817-.406.789-.895 1.562-1.42 2.303l.631 1.021h.146c1.523-2.262 2.543-4.756 2.648-7.592.051-1.188-.32-2.222-.768-3.211l-.062-.064zm1.209 4.066c-.049.381-.078.767-.145 1.128l-.121-.165c-.129.777-.32 1.5-.588 2.221l.189.519c-.154.522-.348 1.081-.6 1.667-.059-.178-.168-.391-.27-.554-.338.671-.738 1.387-1.139 1.984h1.008c.551-1.063.979-2.191 1.297-3.354.264-1.09.508-2.253.373-3.446h-.004zm.063 2.779c-.211 1.108-.594 2.48-.914 3.459-.037-.075-.074-.151-.107-.232-.15.305-.381.794-.381.794h.518c.446-1.054.759-2.572.884-4.021zM4.458 21.54c-.632.286-1.26.526-1.921.737v.118h2.4l-.479-.855zm5.255.16c-.25.181-.566.461-.949.701h1.409s-.306-.457-.46-.701z"/></svg>